# xmcd CD database file
#
# Track frame offsets:
#	150
#	27639
#	40863
#	74570
#	103245
#	125903
#	151061
#	170842
#	195948
#	212301
#	233867
#	255045
#
# Disc length: 3810 seconds
#
# Revision: 0
# Processed by: cddbd v1.5.2PL0 Copyright (c) Steve Scherf et al.
# Submitted via: CDex 1.51
#
DISCID=a20ee00c
DTITLE=Krister Jonsson Trio and Svante Henryson - Waiting for Atonesjka
DYEAR=1900
DGENRE=Jazz
TTITLE0=voices
TTITLE1=om kor
TTITLE2=shotma
TTITLE3=jog
TTITLE4=insomniac
TTITLE5=waiting
TTITLE6=and suddenly
TTITLE7=slap
TTITLE8=do we
TTITLE9=confession
TTITLE10=plaster
TTITLE11=varsågod
EXTD=
EXTT0=
EXTT1=
EXTT2=
EXTT3=
EXTT4=
EXTT5=
EXTT6=
EXTT7=
EXTT8=
EXTT9=
EXTT10=
EXTT11=
PLAYORDER=
